<?xml version="1.0" encoding="UTF-8" standalone="no"?>
<!-- Created with Inkscape (http://www.inkscape.org/) -->

<svg
   version="1.1"
   id="svg1"
   width="2943.7344"
   height="4314.269"
   viewBox="0 0 2943.7344 4314.269"
   sodipodi:docname="drawing.svg"
   inkscape:version="1.4 (86a8ad7, 2024-10-11)"
   xml:space="preserve"
   inkscape:export-filename="bitmap.svg"
   inkscape:export-xdpi="96"
   inkscape:export-ydpi="96"
   xmlns:inkscape="http://www.inkscape.org/namespaces/inkscape"
   xmlns:sodipodi="http://sodipodi.sourceforge.net/DTD/sodipodi-0.dtd"
   xmlns:xlink="http://www.w3.org/1999/xlink"
   xmlns="http://www.w3.org/2000/svg"
   xmlns:svg="http://www.w3.org/2000/svg"><defs
     id="defs1"><linearGradient
       id="linearGradient31"
       inkscape:collect="always"><stop
         style="stop-color:#2626dd;stop-opacity:1;"
         offset="0"
         id="stop31" /><stop
         style="stop-color:#000080;stop-opacity:1;"
         offset="1"
         id="stop32" /></linearGradient><linearGradient
       id="swatch63"
       inkscape:swatch="solid"><stop
         style="stop-color:#000000;stop-opacity:1;"
         offset="0"
         id="stop63" /></linearGradient><radialGradient
       inkscape:collect="always"
       xlink:href="#linearGradient80"
       id="radialGradient31"
       cx="1713.5242"
       cy="5258.9512"
       fx="1713.5242"
       fy="5258.9512"
       r="1471.8671"
       gradientTransform="matrix(1,0,0,1.3223009,0,-1694.9645)"
       gradientUnits="userSpaceOnUse" /><linearGradient
       id="linearGradient80"
       inkscape:collect="always"><stop
         style="stop-color:#bf5e1f;stop-opacity:1;"
         offset="0.55000001"
         id="stop81" /><stop
         style="stop-color:#8a3900;stop-opacity:1;"
         offset="1"
         id="stop82" /></linearGradient><clipPath
       clipPathUnits="userSpaceOnUse"
       id="clipPath290"><path
         id="path291"
         style="fill:#ff0000;fill-opacity:1;fill-rule:nonzero;stroke:none"
         d="m 724.8418,5756.291 v 388.1094 h 2055.6445 v -320.041 c -0.2853,-0.3624 -0.2612,-0.3373 -0.8925,-1.1406 -3.1458,-3.9936 -6.2704,-8.0067 -9.3536,-12.0508 0.384,0.914 0.7944,1.8168 1.17,2.7343 0.7683,1.872 1.4132,3.7888 2.041,5.711 3.1066,9.5114 -4.8025,13.4982 -9.3047,7.2812 -0.2508,5.254 -3.9502,7.6249 -7.2832,5.8203 0.9289,2.1751 1.9534,4.3083 2.8613,6.4922 4.44,10.6808 -6.3509,15.1659 -10.7891,4.4844 -2.1068,-5.0705 -4.3946,-10.0623 -6.6406,-15.0723 -0.7385,2.1437 -2.5716,3.3723 -4.709,3.2559 0.01,0.066 0.025,0.1297 0.033,0.1953 0.025,0.2327 0.051,0.4665 0.076,0.6992 0.7666,7.0414 -3.2972,10.2341 -6.8476,9.0176 0.012,0.1367 0.024,0.2734 0.035,0.4102 0.086,0.9698 0.2184,1.9333 0.3633,2.8965 0.075,0.1777 0.1497,0.3554 0.2246,0.5332 2.5728,6.1004 0.031,9.78 -3.3574,10.166 -2.2522,0.9443 -5.051,-0.015 -6.7852,-3.1309 -1.6922,-0.4509 -3.322,-1.8075 -4.5449,-4.2734 0.7313,2.9851 0.4499,5.3677 -0.4062,7.041 0.189,0.4039 0.357,0.8172 0.5468,1.2207 4.9239,10.4665 -5.6523,15.441 -10.5722,4.9726 -1.162,-2.4723 -2.311,-4.9512 -3.4336,-7.4414 -0.8633,0.2711 -1.8002,0.3487 -2.7539,0.07 0.1174,0.6479 0.2257,1.2977 0.3457,1.9453 0.3819,2.1735 0.933,4.3059 1.6367,6.3965 1.5044,4.4672 0.4747,7.5784 -1.4395,9.1308 0.064,0.3915 0.1316,0.7823 0.1953,1.1738 0.095,0.5075 0.1902,1.0139 0.2852,1.5215 2.1277,11.3694 -9.3791,13.512 -11.4863,2.1387 l -0.3301,-1.7852 c -0.1757,-1.0801 -0.3611,-2.1585 -0.5391,-3.2382 -1.124,-0.6991 -2.2363,-1.6464 -3.2285,-3.1934 -1.3218,7.1147 -9.7426,7.2137 -11.4922,-2.4102 -0.052,-0.2882 -0.091,-0.5787 -0.1425,-0.8671 -0.2277,0.2272 -0.5459,0.2501 -0.8028,0.4218 0.7647,5.1941 -1.6353,7.7949 -4.4805,7.9922 -0.08,0.9894 -0.1562,1.9784 -0.2285,2.9688 -0.8419,11.5362 -12.4979,10.6864 -11.6543,-0.8496 0.059,-0.8119 0.1236,-1.6239 0.1875,-2.4356 -0.307,-1.0516 -0.1015,-2.1934 0.3047,-3.5351 0.02,-0.2063 0.035,-0.413 0.055,-0.6192 0.043,-0.4579 0.1927,-1.97 0.2227,-2.5254 0.073,-1.3309 0.041,-2.666 0.041,-3.998 -0.065,-1.6313 -0.1514,-3.2663 -0.4219,-4.8789 -0.3919,-2.1775 -1.0243,-4.293 -1.5137,-6.4493 -0.5978,-2.6575 -1.2822,-5.2947 -1.9257,-7.9414 -0.8351,-3.3424 -1.6977,-6.6793 -2.4942,-10.0312 -0.7816,-3.3759 -1.5695,-6.7567 -2.0625,-10.1895 -0.072,-0.5604 -0.134,-1.1205 -0.1894,-1.6816 -0.1656,-0.774 -0.2976,-1.5556 -0.5137,-2.3184 -0.247,-0.9236 -0.5831,-1.8184 -0.836,-2.7402 -0.4299,-1.5687 -0.5822,-2.9799 -0.5156,-4.2148 -0.094,-0.4612 -0.296,-0.8949 -0.3613,-1.3633 -0.7983,-5.728 0.2999,-8.3541 2.498,-8.416 1.0116,-0.029 2.2627,0.5108 3.6622,1.5156 0.9708,-0.8824 2.0504,-1.4658 3.166,-1.4922 -2.0175,-5.296 0.3367,-8.7678 3.914,-8.584 0.029,0 0.059,0.01 0.088,0.012 -0.5683,-2.6339 -0.9997,-5.2916 -1.0566,-7.998 -0.1216,-5.7808 2.6765,-8.6695 5.5664,-8.6699 2.3027,0 4.5983,1.9193 5.5859,5.5879 0.4875,-0.2325 1.0287,-0.3053 1.5821,-0.3086 0.6309,-2.2182 2.1481,-3.5643 3.998,-3.6387 0.7879,-0.032 1.66,0.4248 2.5215,0.8809 -1.4937,-7.8656 0.3214,1.2778 -0.834,-5.1622 -0.2164,-1.2066 -0.385,-1.7959 -0.6738,-2.9277 -0.09,-0.2878 -0.1695,-0.5796 -0.2715,-0.8633 -0.3254,-0.9051 -0.8582,-1.7164 -1.2813,-2.5761 -1.6427,-3.338 -1.674,-6.0915 -0.8242,-8 -0.324,-1.3711 -0.4413,-2.6223 -0.3887,-3.7422 z m 1960.6016,0 c 0.048,0.1493 0.1056,0.2787 0.1504,0.4336 0.938,3.2514 2.0103,6.4617 3.082,9.6719 0.6715,-2.3617 2.351,-3.7552 4.3437,-3.8125 2.6136,-0.075 5.6485,2.029 7.2305,6.8359 0.1301,0.3953 0.2482,0.7954 0.377,1.1914 -0.4847,-4.1838 -0.9434,-8.3729 -1.0235,-12.5859 -0.012,-0.6092 0.015,-1.1819 0.062,-1.7344 z m 37.2656,0 c 2.5527,2.257 5.4837,4.3533 6.957,1.0274 0.1252,-0.3575 0.2577,-0.7014 0.3985,-1.0274 z m 34.6777,0 c 0.4211,0.6143 0.8458,1.2263 1.2735,1.836 0.1425,0.1424 0.2679,0.2605 0.414,0.4082 1.2487,1.261 2.4506,2.5677 3.6758,3.8515 4.2142,4.31 8.3889,8.6677 11.9883,13.5156 2.1468,2.8915 2.3578,3.3652 4.2305,6.3672 0.5241,0.8757 1.0295,1.7626 1.5175,2.6582 v -28.6367 z" /></clipPath><clipPath
       clipPathUnits="userSpaceOnUse"
       id="clipPath348"><path
         id="path349"
         style="fill:#ff0000;fill-opacity:1;fill-rule:nonzero;stroke:none"
         d="m 2453.4414,4272.9805 v 23.1738 c 2.7137,-1.9242 5.4215,-3.8563 8.0977,-5.832 1.5861,-1.1043 2.2217,-1.5803 3.8691,-2.5899 1.5073,-0.9236 3.1063,-1.687 4.6914,-2.4726 -0.6422,-1.5203 -2.135,-2.8614 -4.9707,-3.8047 -0.015,-0.01 -0.058,-0.01 -0.045,-0.016 0.69,-0.4909 1.4387,-0.8928 2.1543,-1.3457 0.8567,-0.5425 2.7493,-1.7601 3.5625,-2.3477 0.4813,-0.3478 0.9331,-0.7333 1.4004,-1.0996 1.3676,-1.1355 2.643,-2.3705 3.8554,-3.666 z m 43.4609,0 c -1.3398,2.2021 -2.8598,4.2881 -4.4785,6.2988 -0.3461,0.4279 -0.6966,0.8521 -1.0488,1.2754 0.7767,0.3859 1.7889,0.6348 3.002,0.7598 1.0478,-0.795 2.099,-1.5858 3.1406,-2.3887 0.8198,-0.669 0.9181,-0.81 0.6386,-0.2324 0.01,-0.01 0.013,-0.017 0.02,-0.025 0.1,-0.207 0.3015,-0.632 0.3144,-0.6192 0,0 10e-4,0.023 -0.02,0.068 -0.034,0.091 -0.052,0.1637 -0.084,0.2519 1.8314,-2.3608 4.0422,-3.5349 6.168,-3.5644 3.0057,-0.041 5.7596,2.0878 6.875,5.7832 1.6686,-0.3696 2.7527,-0.1734 2.9785,0.8926 1.6471,-1.0926 3.1406,-1.895 4.1719,-1.8243 1.2381,0.085 1.8199,1.4114 1.2344,4.9415 -0.446,2.6888 -1.9551,5.042 -3.8321,6.9707 -0.4862,0.4995 -1.0094,0.9621 -1.5136,1.4433 -3.7529,3.1396 -8.0692,5.4848 -12.379,7.7559 -3.9717,1.978 -7.7954,4.2222 -11.5937,6.5097 -7.7016,4.8074 -15.4085,9.6014 -23.2305,14.211 -2.825,1.6468 -3.4154,1.9797 -4.1054,2.3789 -0.6609,0.4445 -1.325,0.8842 -1.9903,1.3223 -1.7204,1.1329 -3.3277,1.7969 -4.8652,2.2578 -0.9978,0.355 -1.9575,0.6042 -2.8633,0.7382 v 456.211 h 419.4922 c 0.6116,-2.5561 2.4179,-5.3584 5.7949,-7.9492 1.1174,-0.8573 2.2273,-1.7241 3.3457,-2.5801 2.9527,-2.2134 5.8912,-4.4478 8.8106,-6.7051 3.9372,-3.1192 7.7279,-6.4192 11.3828,-9.8652 4.5135,-4.2759 8.9817,-8.6129 12.9336,-13.4258 0.531,-0.6716 1.0779,-1.329 1.5918,-2.0137 2.498,-3.3287 4.5931,-6.9442 7.0156,-10.3262 0.643,-0.9526 1.3172,-1.8848 1.9297,-2.8574 0.6134,-0.9741 1.0964,-2.0254 1.6679,-3.0234 3.0486,-5.3231 6.9066,-7.679 10.1563,-7.7695 3.7735,-0.1052 6.717,2.8489 6.6328,7.748 0.239,-0.1575 0.473,-0.3224 0.7129,-0.4785 v -452.1699 z m 448.0059,478.4863 c -0.044,0.056 -0.09,0.1083 -0.1348,0.1641 0.044,0.01 0.09,0.01 0.1348,0.01 z m 0,17.3926 c -3.4336,4.0408 -6.9823,7.9845 -10.5352,11.9199 l -1.4433,1.6113 c -0.6782,0.7562 -1.362,1.4234 -2.0449,2.0059 h 14.0234 z m -27.25,6.8047 c -0.7609,0.3036 -1.5249,0.614 -2.2383,0.7714 -0.2424,0.3682 -0.4571,0.7479 -0.7363,1.1016 -0.9836,1.2463 -2.0038,2.0675 -3.1738,3.1055 -1.4634,1.1827 -2.8881,2.4106 -4.3379,3.6094 -0.063,0.052 -0.1249,0.094 -0.1875,0.1445 h 10.3261 c -1.2419,-2.1919 -1.3428,-5.291 0.3477,-8.7324 z" /></clipPath><clipPath
       clipPathUnits="userSpaceOnUse"
       id="clipPath407"><path
         id="path408"
         style="fill:#ff0000;fill-opacity:1;fill-rule:nonzero;stroke:none"
         d="m 333.39648,4338.8789 v 411.4941 c 1.1142,0.7356 2.23579,1.7161 3.35547,2.7051 1.23814,-2.4041 2.51014,-4.0361 3.89258,-4.1836 1.71523,-0.1829 3.59802,1.9145 5.79297,7.6426 0.25354,0.6616 0.53542,1.3149 0.76172,1.9863 0.14273,0.4235 0.90258,3.0515 1.15625,3.8457 0.58223,1.8229 1.23067,3.6267 1.83203,5.4434 0.29391,1.1074 0.66194,2.1865 1.05664,3.2559 0.43985,0.5986 0.8778,1.1987 1.31836,1.7968 -0.22915,-1.2998 -0.66749,-2.8408 -1.35938,-4.6699 -0.0961,-0.2541 -0.45374,-0.8884 -0.38671,-0.9043 0.01,0 0.0277,0.01 0.0566,0.033 0.29333,0.2632 0.364,0.6997 0.53515,1.0547 0.28217,0.5853 0.55989,1.1729 0.82618,1.7656 0.74842,1.6662 1.38018,3.3773 2.1289,5.043 0.0674,0.1338 0.13192,0.2686 0.19922,0.4023 0.0426,0.059 0.0864,0.1169 0.12891,0.1758 3.34456,4.6393 5.21973,9.0272 6.00781,13.0039 0.163,0.4175 0.28866,0.8485 0.44726,1.2676 0.0206,0.035 0.0399,0.071 0.0605,0.1055 1.57143,2.9439 3.30097,5.796 4.95703,8.6914 0.81675,1.6977 1.88259,3.2575 2.69532,4.957 1.15199,2.6279 0.68384,1.6532 1.32421,2.961 0.83866,1.1968 1.174,2.7813 2.13868,3.8984 0.0851,0.099 -0.10155,-0.2394 -0.15235,-0.3594 2.02733,2.3559 4.33255,4.4574 6.60742,6.5723 0.88042,0.7038 1.81656,1.3366 2.67578,2.0664 0.37374,0.3333 0.73732,0.6781 1.10743,1.0156 h 531.22461 v -438.1328 c -1.84378,-0.4584 -3.68367,-0.9331 -5.51758,-1.4336 -5.03435,-1.4268 -10.08227,-2.8372 -15.00781,-4.6113 -4.73443,-1.734 -9.60097,-3.0471 -14.44336,-4.4453 -5.40664,-1.6 -10.80069,-3.2535 -16.16602,-4.9864 -3.3046,-1.1253 -6.6737,-2.048 -9.96289,-3.2226 -3.64267,-1.1212 -7.30078,-2.1898 -10.97852,-3.1895 -15.01022,-4.0803 -20.7249,-13.3504 -19.21289,-21.0449 z m 552.29883,0 c 0.8273,0.2476 1.65222,0.5041 2.48047,0.7481 5.51481,1.5556 11.01948,3.1341 16.40625,5.0918 3.02826,1.0769 6.11239,1.9813 9.20313,2.8632 v -8.7031 z" /></clipPath><radialGradient
       inkscape:collect="always"
       xlink:href="#linearGradient31"
       id="radialGradient32-4"
       cx="1635.8021"
       cy="5219.0054"
       fx="1635.8021"
       fy="5219.0054"
       r="1301.7609"
       gradientTransform="matrix(1,0,0,0.7229158,-1.9696338e-4,1446.104)"
       gradientUnits="userSpaceOnUse" /><mask
       maskUnits="userSpaceOnUse"
       id="mask16"><path
         style="fill:url(#radialGradient16);stroke:#000000;stroke-width:15;stroke-linecap:round;stroke-linejoin:round;stroke-dasharray:none;stroke-opacity:1"
         d="m 852.05515,4357.3453 c -183.6358,104.4359 -382.89902,221.3824 -510.51406,409.8494 41.71646,92.4598 182.7997,216.8589 492.53822,395.4686 -14.24881,337.0113 -56.48763,618.0425 -118.6406,859.2455 1070.75539,249.4214 1484.18409,109.3049 1948.58179,-143.8068 l -140.2116,-888.0068 c 265.4924,-126.023 399.6126,-213.1209 406.2542,-262.4474 -146.698,-296.5881 -283.1927,-358.5035 -420.6348,-442.2059 -399.276,264.0555 -1126.5268,253.5549 -1657.37315,71.9034 z"
         id="path16"
         sodipodi:nodetypes="ccccccccc"
         mask="none" /></mask><radialGradient
       inkscape:collect="always"
       xlink:href="#linearGradient31"
       id="radialGradient16"
       gradientUnits="userSpaceOnUse"
       gradientTransform="matrix(1,0,0,0.7229158,0,1446.104)"
       cx="1635.8021"
       cy="5219.0054"
       fx="1635.8021"
       fy="5219.0054"
       r="1301.7609" /></defs><sodipodi:namedview
     id="namedview1"
     pagecolor="#ffffff"
     bordercolor="#000000"
     borderopacity="0.25"
     inkscape:showpageshadow="2"
     inkscape:pageopacity="0.0"
     inkscape:pagecheckerboard="0"
     inkscape:deskcolor="#d1d1d1"
     showgrid="false"
     inkscape:zoom="1.112604"
     inkscape:cx="2581.781"
     inkscape:cy="4733.9393"
     inkscape:window-width="1920"
     inkscape:window-height="986"
     inkscape:window-x="-11"
     inkscape:window-y="-11"
     inkscape:window-maximized="1"
     inkscape:current-layer="g10"
     inkscape:export-bgcolor="#ffffff00"
     inkscape:lockguides="false"><inkscape:page
       x="0"
       y="0"
       width="2943.7344"
       height="4314.269"
       id="page2"
       margin="0"
       bleed="0" /></sodipodi:namedview><g
     inkscape:groupmode="layer"
     inkscape:label="Image"
     id="g1"
     transform="translate(-241.65706,-2890.9336)"><g
       id="g10"
       inkscape:export-filename="Downloads\g10.png"
       inkscape:export-xdpi="96"
       inkscape:export-ydpi="96"><rect
         style="fill:#deaa87;fill-opacity:1;stroke:#000000;stroke-width:15;stroke-linecap:round;stroke-linejoin:round;stroke-dasharray:none;stroke-opacity:1"
         id="rect16"
         width="89.923012"
         height="1180.7821"
         x="1068.0618"
         y="3683.1194"
         ry="57.454128"
         transform="rotate(-24.236082)" /><path
         style="fill:url(#radialGradient31);stroke:#000000;stroke-width:15;stroke-linecap:round;stroke-linejoin:round;stroke-dasharray:none;stroke-opacity:1"
         d="m 1236.7383,3573.5984 c -34.7007,-173.6592 -231.8849,-160.4419 -313.78255,-68.0135 -92.90325,104.8492 11.16336,306.912 162.78545,348.4367 -136.67906,229.6365 -97.05737,354.2391 -104.25992,532.0851 -3.3263,45.6506 -126.46863,35.5348 -159.72215,-55.0759 -107.70894,-293.4904 -261.61488,-605.5514 -483.8132,-441.0575 -164.94921,86.4163 -153.23625,478.4354 503.32372,1269.0948 -71.00808,2105.7743 289.23275,2025.1026 391.87345,2020.4852 151.2553,-6.8043 340.1753,-116.6131 226.4957,-711.8436 142.3633,22.3332 286.7362,28.59 438.6107,-25.1661 -21.2287,695.8303 141.0228,759.2472 215.7101,754.9856 619.4185,-35.3435 323.9832,-1755.3146 381.088,-2193.0534 364.9924,-272.551 934.2629,-1099.7135 560.8464,-1351.7837 -189.8259,-37.1297 -265.1033,81.0984 -394.9825,431.8438 -67.2269,181.5499 -201.0697,235.9972 -367.1934,308.7611 55.4731,-25.2158 63.5486,-509.4917 -68.3083,-661.5112 221.9654,-171.2542 122.7724,-439.3698 -140.0864,-409.2785 -208.5865,23.8783 -140.86,204.6962 -140.3368,182.7829 -240.6592,-64.689 -505.6578,-28.7946 -708.2483,68.3082 z"
         id="path10"
         sodipodi:nodetypes="csccsccsccsccsccscc" /><path
         style="fill:none;stroke:#000000;stroke-width:15;stroke-linecap:round;stroke-linejoin:round;stroke-dasharray:none;stroke-opacity:1"
         d="m 1348.1885,4170.3965 c 137.1206,101.9518 249.9227,105.2388 319.9701,-64.7131 -1.1737,149.6751 152.4953,175.8629 262.4474,25.1662"
         id="path11"
         sodipodi:nodetypes="ccc" /><path
         style="fill:none;stroke:#000000;stroke-width:15;stroke-linecap:butt;stroke-linejoin:miter;stroke-dasharray:none;stroke-opacity:1"
         d="m 1542.3276,4231.5144 c 87.4797,278.2361 148.5322,152.3509 227.3945,-1.7976"
         id="path12"
         sodipodi:nodetypes="cc" /><path
         style="fill:#6c5d53;fill-opacity:1;stroke:#000000;stroke-width:19.0663;stroke-linecap:round;stroke-linejoin:round;stroke-dasharray:none"
         d="m 1645.4187,4380.1566 c 0,-0.6991 -2.5402,-1.2711 -5.6449,-1.2711 -3.1047,0 -5.9984,-0.5719 -6.4304,-1.271 -0.4321,-0.6991 -2.1118,-1.2711 -3.7327,-1.2711 -1.6208,0 -3.581,-0.764 -4.3559,-1.6976 -0.7749,-0.9337 -3.9909,-3.0256 -7.1466,-4.6487 -3.1558,-1.623 -5.7377,-3.5814 -5.7377,-4.352 0,-0.7706 -1.1686,-2.1309 -2.5969,-3.0228 -6.6856,-4.1752 -24.1135,-37.0935 -37.1599,-70.1885 -9.431,-23.9236 -18.0469,-48.1682 -17.3076,-48.7021 0.2756,-0.199 4.645,-1.9515 9.7098,-3.8944 19.8818,-7.627 41.8105,-23.6006 58.3865,-42.5309 10.4251,-11.9058 26.5866,-35.4878 33.5512,-48.956 2.3945,-4.6306 4.7177,-8.4214 5.1626,-8.424 0.445,0 1.2133,2.7122 1.7075,6.0329 1.4842,9.9734 8.707,29.8363 14.5853,40.1103 10.8067,18.8877 24.4745,32.3758 42.0037,41.4517 9.9746,5.1644 24.8593,10.2739 29.9293,10.2739 1.6328,0 3.3102,0.5524 3.7274,1.2275 1.1404,1.8451 -4.1929,11.4833 -6.3543,11.4833 -1.2246,0 -1.8808,1.2761 -1.8808,3.6576 0,2.0117 -0.8579,4.3697 -1.9066,5.24 -1.0486,0.8703 -1.9066,2.6495 -1.9066,3.9537 0,4.8404 -31.9156,61.7353 -45.5547,81.209 -8.2492,11.778 -21.5006,27.424 -26.3769,31.1433 -2.8401,2.1663 -5.7834,3.1759 -9.258,3.1759 -2.8018,0 -5.4476,0.572 -5.8797,1.2711 -0.4321,0.6991 -2.7538,1.2711 -5.1593,1.2711 -2.4056,0 -4.3738,-0.572 -4.3738,-1.2711 z"
         id="path22" /><path
         style="fill:#6c5d53;fill-opacity:1;stroke:#000000;stroke-width:19.0663;stroke-linecap:round;stroke-linejoin:round;stroke-dasharray:none"
         d="m 1648.7532,4370.3566 c -0.407,-0.407 -3.6283,-1.1966 -7.1585,-1.7546 -19.6459,-3.1056 -31.7612,-17.1675 -50.2169,-58.2851 -7.2103,-16.0638 -24.0165,-59.7229 -23.2694,-60.4488 0.2253,-0.2189 3.8217,-1.9039 7.992,-3.7444 11.3154,-4.9938 30.4609,-18.2541 42.3697,-29.3455 11.0036,-10.2484 21.8688,-23.4746 33.2595,-40.4869 l 6.7124,-10.0251 4.4202,10.6606 c 5.2702,12.7106 15.1586,28.2158 24.4733,38.3746 8.6103,9.3907 26.1472,20.9656 39.8256,26.2863 l 10.6421,4.1396 -1.7499,4.6138 c -0.9625,2.5375 -2.1002,5.7577 -2.5283,7.1559 -0.428,1.3982 -4.8852,10.55 -9.9048,20.3373 -24.7186,48.1972 -54.895,90.8826 -64.2495,90.8826 -1.9898,0 -5.0262,0.5354 -6.7476,1.1899 -1.7214,0.6545 -3.4628,0.8569 -3.8699,0.4498 z"
         id="path23" /><path
         style="fill:#6c5d53;fill-opacity:1;stroke:#000000;stroke-width:19.0663;stroke-linecap:round;stroke-linejoin:round;stroke-dasharray:none"
         d="m 1641.2734,4358.0755 c -12.8055,-3.5626 -21.6633,-13.5686 -33.9012,-38.2954 -6.4745,-13.0818 -19.4742,-44.0101 -24.9205,-59.2898 l -1.6515,-4.6332 10.64,-6.5019 c 23.4215,-14.3125 42.5956,-31.5918 57.7755,-52.066 6.0324,-8.1364 7.1138,-9.0665 8.2461,-7.0918 0.7168,1.2499 5.1029,8.0379 9.747,15.0843 12.5452,19.035 26.2504,31.0452 47.8017,41.8901 5.0685,2.5505 9.2154,5.1452 9.2154,5.7661 0,1.4638 -14.612,29.919 -22.3634,43.5499 -10.7609,18.9233 -29.6338,46.6178 -37.0864,54.4214 -8.303,8.6941 -12.9348,10.1064 -23.5027,7.1663 z"
         id="path24" /><path
         style="fill:#6c5d53;fill-opacity:1;stroke:#000000;stroke-width:19.0663;stroke-linecap:round;stroke-linejoin:round;stroke-dasharray:none"
         d="m 1643.5121,4347.965 c -7.1611,-2.8021 -9.431,-4.7066 -15.0544,-12.6308 -7.1018,-10.0077 -15.2368,-26.2515 -25.4904,-50.8992 -10.978,-26.389 -10.5855,-24.0448 -4.59,-27.4145 14.6927,-8.2578 37.9987,-28.2384 50.9715,-43.6987 l 6.137,-7.3137 5.3256,7.9493 c 8.2466,12.3093 25.5844,28.5589 38.3182,35.9131 6.0524,3.4955 11.0292,6.7948 11.0594,7.3318 0.089,1.5865 -12.0161,25.1856 -19.1566,37.3451 -16.7258,28.4824 -37.1078,55.2576 -41.8724,55.0065 -1.0091,-0.053 -3.5507,-0.7682 -5.6479,-1.5889 z"
         id="path25" /><path
         style="fill:#6c5d53;fill-opacity:1;stroke:#000000;stroke-width:19.0663;stroke-linecap:round;stroke-linejoin:round;stroke-dasharray:none"
         d="m 1641.6388,4334.7154 c -5.8787,-5.3794 -15.196,-22.028 -25.1568,-44.9516 -4.9773,-11.4549 -9.3964,-21.7411 -9.8202,-22.8583 -0.5636,-1.4859 2.2122,-4.1983 10.3406,-10.1039 6.111,-4.44 16.9528,-13.6993 24.0927,-20.5763 l 12.9817,-12.5037 13.1484,13.0827 c 7.2315,7.1954 17.0201,15.5842 21.7523,18.6416 l 8.6041,5.559 -7.1913,13.499 c -14.6551,27.5098 -39.6087,63.707 -43.9183,63.707 -0.5573,0 -2.7322,-1.573 -4.8332,-3.4955 z"
         id="path26" /><path
         style="fill:#6c5d53;fill-opacity:1;stroke:#000000;stroke-width:19.0663;stroke-linecap:round;stroke-linejoin:round;stroke-dasharray:none"
         d="m 1642.5159,4318.8271 c -5.9432,-10.2104 -23.79,-47.6844 -23.79,-49.9536 0,-0.1432 5.2909,-4.576 11.7575,-9.8507 6.4667,-5.2746 14.2808,-12.1813 17.3647,-15.3482 l 5.6071,-5.7578 10.0393,9.4442 c 5.5216,5.1944 12.281,11.0299 15.0209,12.9679 2.7398,1.9379 4.9937,3.9996 5.0087,4.5815 0.082,3.1784 -33.4253,56.5761 -36.8163,58.6719 -0.576,0.3559 -2.4623,-1.7839 -4.1919,-4.7552 z"
         id="path27" /><path
         style="fill:#6c5d53;fill-opacity:1;stroke:#000000;stroke-width:19.0663;stroke-linecap:round;stroke-linejoin:round;stroke-dasharray:none"
         d="m 1638.3524,4287.8923 c -4.5027,-9.4987 -8.1867,-17.6928 -8.1867,-18.2091 0,-0.5164 1.3782,-2.2336 3.0626,-3.8161 2.5993,-2.4418 3.1282,-2.5659 3.4955,-0.82 0.3211,1.526 2.561,0.1266 8.6759,-5.4201 l 8.243,-7.4772 8.5015,7.7056 c 7.4806,6.7804 8.3374,8.0172 7.1351,10.3001 -2.7928,5.3033 -21.5919,35.0072 -22.1553,35.0072 -0.3217,0 -4.2689,-7.7717 -8.7716,-17.2704 z"
         id="path28" /><path
         style="fill:#6c5d53;fill-opacity:1;stroke:#000000;stroke-width:19.0663;stroke-linecap:round;stroke-linejoin:round;stroke-dasharray:none"
         d="m 1646.1295,4280.3607 c -1.09,-2.6089 -1.9819,-5.1498 -1.9819,-5.6466 0,-0.4967 2.2096,-2.6787 4.9102,-4.849 3.6679,-2.9476 5.2758,-3.5803 6.3554,-2.5007 2.1513,2.1513 1.7963,3.4614 -2.9608,10.9271 l -4.3409,6.8127 z"
         id="path29" /><g
         id="g8"
         style="display:inline"
         transform="translate(-7.1903382,-43.14204)"><circle
           style="fill:#000000;fill-opacity:1;stroke:#1a1a1a;stroke-width:10;stroke-dasharray:none"
           id="path3"
           cx="1380.3976"
           cy="3975.9519"
           r="73.722893" /><circle
           style="fill:#ffffff;fill-opacity:1;stroke:none;stroke-width:10;stroke-dasharray:none"
           id="path4"
           cx="1380.3975"
           cy="3959.4277"
           r="38.13253" /></g><circle
         style="display:inline;fill:#000000;fill-opacity:1;stroke:#1a1a1a;stroke-width:10;stroke-dasharray:none"
         id="circle9"
         cx="1973.9741"
         cy="3965.3423"
         r="73.722893"
         transform="translate(-53.927548,-57.522718)" /><g
         id="g7"
         style="display:inline"
         transform="translate(-53.927548,-57.522718)"
         inkscape:transform-center-x="194.13915"
         inkscape:transform-center-y="-122.23576"><circle
           style="fill:#000000;fill-opacity:1;stroke:#1a1a1a;stroke-width:10;stroke-dasharray:none"
           id="circle31"
           cx="1973.9741"
           cy="3965.3423"
           r="73.722893" /><circle
           style="fill:#ffffff;fill-opacity:1;stroke:none;stroke-width:10;stroke-dasharray:none"
           id="circle10"
           cx="1973.974"
           cy="3948.8181"
           r="38.13253" /></g><ellipse
         style="fill:#000000;fill-opacity:1;stroke:#000000;stroke-width:13.5059;stroke-linecap:round;stroke-linejoin:round;stroke-dasharray:none"
         id="path8"
         cx="1660.9683"
         cy="4078.72"
         rx="105.00699"
         ry="51.079445" /><path
         style="fill:url(#radialGradient32-4);stroke:#000000;stroke-width:15;stroke-linecap:round;stroke-linejoin:round;stroke-dasharray:none;stroke-opacity:1"
         d="m 852.055,4357.3453 c -183.6358,104.4359 -382.89907,221.3824 -510.51411,409.8494 41.71646,92.4598 182.7997,216.8589 492.53821,395.4686 -14.2488,337.0113 -56.4876,618.0425 -118.6406,859.2455 1070.7554,249.4214 1484.1841,109.3049 1948.5818,-143.8068 l -140.2116,-888.0068 c 265.4924,-126.023 399.6126,-213.1209 406.2542,-262.4474 -146.698,-296.5881 -283.1927,-358.5035 -420.6348,-442.2059 -399.276,264.0555 -1126.5268,253.5549 -1657.3731,71.9034 z"
         id="path30-5"
         sodipodi:nodetypes="ccccccccc"
         mask="none" /><g
         id="g490"
         style="fill:#000000;fill-opacity:1;stroke:none"
         mask="url(#mask16)"><rect
           style="fill:#000000;fill-opacity:1;stroke:none;stroke-width:10.4118;stroke-linecap:butt;stroke-linejoin:round;stroke-dasharray:none;stroke-opacity:1"
           id="rect485"
           width="140.70303"
           height="1708.3341"
           x="942.71033"
           y="4310.2026"
           ry="5.4020982" /><rect
           style="fill:#000000;fill-opacity:1;stroke:none;stroke-width:10.4118;stroke-linecap:butt;stroke-linejoin:round;stroke-dasharray:none;stroke-opacity:1"
           id="rect486"
           width="140.70303"
           height="1708.3341"
           x="1331.8982"
           y="4406.585"
           ry="5.4020982" /><rect
           style="fill:#000000;fill-opacity:1;stroke:none;stroke-width:10.4118;stroke-linecap:butt;stroke-linejoin:round;stroke-dasharray:none;stroke-opacity:1"
           id="rect487"
           width="140.70303"
           height="1708.3341"
           x="1721.0675"
           y="4416.5112"
           ry="5.4020982" /><rect
           style="fill:#000000;fill-opacity:1;stroke:none;stroke-width:10.4118;stroke-linecap:butt;stroke-linejoin:round;stroke-dasharray:none;stroke-opacity:1"
           id="rect488"
           width="140.70303"
           height="1708.3341"
           x="2101.6169"
           y="4330.6733"
           ry="5.4020982" /><rect
           style="fill:#000000;fill-opacity:1;stroke:none;stroke-width:10.3797;stroke-linecap:butt;stroke-linejoin:round;stroke-dasharray:none;stroke-opacity:1"
           id="rect489"
           width="140.70303"
           height="1697.8167"
           x="2443.3774"
           y="4244.6353"
           ry="5.3688397" /><rect
           style="fill:#000000;fill-opacity:1;stroke:none;stroke-width:10;stroke-linecap:butt;stroke-linejoin:round;stroke-dasharray:none;stroke-opacity:1"
           id="rect490"
           width="140.70303"
           height="1575.874"
           x="604.57935"
           y="4422.8022"
           ry="4.9832325" /></g><path
         style="fill:none;stroke:#7f7ff0;stroke-width:50;stroke-linecap:round;stroke-linejoin:round;stroke-dasharray:none;stroke-opacity:1"
         d="m 972.90601,4428.2023 c 299.31579,69.2679 770.75289,173.801 1343.75419,-6.2651"
         id="path32"
         sodipodi:nodetypes="cc" /><path
         style="fill:none;stroke:#7f7ff0;stroke-width:50;stroke-linecap:butt;stroke-linejoin:miter;stroke-dasharray:none;stroke-opacity:1"
         d="m 730.32828,5987.8978 c 795.59162,178.9838 1305.21932,211.2019 1896.26672,-128.2983 12.3764,-7.109 24.8801,-14.226 37.4822,-21.4112 0.3869,-0.2206 0.774,-0.4413 1.1611,-0.6621 33.5277,-19.1182 67.7441,-38.7314 102.1021,-59.9711"
         id="path35"
         sodipodi:nodetypes="csssc"
         clip-path="url(#clipPath290)" /><path
         style="fill:none;stroke:#7f7ff0;stroke-width:50;stroke-linecap:butt;stroke-linejoin:miter;stroke-dasharray:none;stroke-opacity:1"
         d="m 2466.2862,4294.4299 c 303.2641,181.6088 345.6162,271.083 456.5865,478.1575"
         id="path311"
         inkscape:transform-center-x="3.5951694"
         inkscape:transform-center-y="3.5951694"
         sodipodi:nodetypes="cc"
         clip-path="url(#clipPath348)" /><path
         style="fill:#7f7ff0;fill-opacity:1;stroke:#7f7ff0;stroke-width:50;stroke-linecap:butt;stroke-linejoin:miter;stroke-dasharray:none;stroke-opacity:1"
         d="m 901.62744,4360.7224 c -289.32959,161.039 -413.91731,260.5291 -548.02976,444.4957"
         id="path350"
         sodipodi:nodetypes="cc"
         clip-path="url(#clipPath407)" /><ellipse
         style="fill:#000080;fill-opacity:1;stroke:#ffcc00;stroke-width:10;stroke-linecap:butt;stroke-linejoin:round;stroke-dasharray:none;stroke-opacity:1"
         id="path440"
         cx="2200.8301"
         cy="4803.8359"
         rx="144.22061"
         ry="134.84041" /><ellipse
         style="fill:#ffffff;fill-opacity:1;stroke:none;stroke-width:11.2499;stroke-linecap:butt;stroke-linejoin:round;stroke-dasharray:none;stroke-opacity:1"
         id="path441"
         cx="2200.2437"
         cy="4806.7676"
         rx="110.80363"
         ry="97.905861" /><ellipse
         style="fill:#0000ff;fill-opacity:1;stroke:none;stroke-width:10.5247;stroke-linecap:butt;stroke-linejoin:round;stroke-dasharray:none;stroke-opacity:1"
         id="path442"
         cx="2217.8318"
         cy="4766.022"
         rx="21.105455"
         ry="20.812325" /><ellipse
         style="fill:#0000ff;fill-opacity:1;stroke:none;stroke-width:8.79155;stroke-linecap:butt;stroke-linejoin:round;stroke-dasharray:none;stroke-opacity:1"
         id="path442-8"
         cx="2228.5745"
         cy="4754.2246"
         rx="25.502424"
         ry="12.018385" /><ellipse
         style="fill:#0000ff;fill-opacity:1;stroke:none;stroke-width:18.759;stroke-linecap:butt;stroke-linejoin:round;stroke-dasharray:none;stroke-opacity:1"
         id="path442-7"
         cx="2224.1418"
         cy="4815.8862"
         rx="32.830708"
         ry="42.504044" /><ellipse
         style="fill:#0000ff;fill-opacity:1;stroke:none;stroke-width:6.98245;stroke-linecap:butt;stroke-linejoin:round;stroke-dasharray:none;stroke-opacity:1"
         id="path442-7-8"
         cx="2210.1223"
         cy="4856.353"
         rx="7.3282828"
         ry="26.381821" /><ellipse
         style="fill:#0000ff;fill-opacity:1;stroke:none;stroke-width:6.98245;stroke-linecap:butt;stroke-linejoin:round;stroke-dasharray:none;stroke-opacity:1"
         id="path442-7-8-8"
         cx="2229.0889"
         cy="4857.1743"
         rx="7.3282828"
         ry="26.381821" /><ellipse
         style="fill:#0000ff;fill-opacity:1;stroke:none;stroke-width:6.98245;stroke-linecap:butt;stroke-linejoin:round;stroke-dasharray:none;stroke-opacity:1"
         id="path442-7-8-8-8-0"
         cx="-2133.9307"
         cy="4832.2563"
         rx="7.3282828"
         ry="26.381821"
         transform="rotate(-48.491517)"
         inkscape:transform-center-x="2.3450506"
         inkscape:transform-center-y="2.3450505" /><rect
         style="fill:#0000ff;fill-opacity:1;stroke:#ffff00;stroke-width:10;stroke-linecap:butt;stroke-linejoin:round;stroke-dasharray:none;stroke-opacity:1"
         id="rect442"
         width="1.7588757"
         height="109.04465"
         x="2182.949"
         y="4746.3828"
         ry="4.9832325" /><ellipse
         style="fill:#0000ff;fill-opacity:1;stroke:none;stroke-width:6.98245;stroke-linecap:butt;stroke-linejoin:round;stroke-dasharray:none;stroke-opacity:1"
         id="path442-7-8-8-8"
         cx="-2151.3423"
         cy="4824.0591"
         rx="7.3282828"
         ry="26.381821"
         transform="rotate(-48.491517)"
         inkscape:transform-center-x="2.3450506"
         inkscape:transform-center-y="2.3450505" /><ellipse
         style="fill:#ff0000;fill-opacity:1;stroke:#000000;stroke-width:10.7804;stroke-linecap:round;stroke-linejoin:round;stroke-dasharray:none;stroke-opacity:1"
         id="path17"
         cx="2639.7612"
         cy="3139.6016"
         rx="164.60588"
         ry="160.978" /><ellipse
         style="fill:#ff0000;fill-opacity:1;stroke:#000000;stroke-width:10.7804;stroke-linecap:round;stroke-linejoin:round;stroke-dasharray:none;stroke-opacity:1"
         id="path17-1"
         cx="2792.3955"
         cy="3480.8579"
         rx="164.60588"
         ry="160.978" /><ellipse
         style="fill:#ffffff;fill-opacity:1;stroke:#000000;stroke-width:15;stroke-linecap:round;stroke-linejoin:round;stroke-dasharray:none;stroke-opacity:1"
         id="path18"
         cx="2665.9934"
         cy="3011.6387"
         rx="16.970562"
         ry="16.263456" /><ellipse
         style="fill:#ffffff;fill-opacity:1;stroke:#000000;stroke-width:15;stroke-linecap:round;stroke-linejoin:round;stroke-dasharray:none;stroke-opacity:1"
         id="path19"
         cx="4103.3691"
         cy="-175.57506"
         rx="49.5"
         ry="15.5"
         transform="rotate(50.680332)" /><ellipse
         style="fill:#ffffff;fill-opacity:1;stroke:#000000;stroke-width:15;stroke-linecap:round;stroke-linejoin:round;stroke-dasharray:none;stroke-opacity:1"
         id="path18-1"
         cx="2821.7744"
         cy="3354.1157"
         rx="16.970562"
         ry="16.263456" /><ellipse
         style="fill:#ffffff;fill-opacity:1;stroke:#000000;stroke-width:15;stroke-linecap:round;stroke-linejoin:round;stroke-dasharray:none;stroke-opacity:1"
         id="path19-4"
         cx="4467.0273"
         cy="-79.081169"
         rx="49.5"
         ry="15.5"
         transform="rotate(50.680332)" /></g></g></svg>
